<svg width="36" height="36" viewBox="0 0 36 36" fill="none" xmlns="http://www.w3.org/2000/svg">
<path d="M29.655 10.6036L21.605 2.35357C21.375 2.11786 21.145 2 20.8 2H9.3C8.035 2 7 3.06071 7 4.35714V32.6429C7 33.9393 8.035 35 9.3 35H27.7C28.965 35 30 33.9393 30 32.6429V11.4286C30 11.075 29.885 10.8393 29.655 10.6036ZM20.8 4.82857L27.24 11.4286H20.8V4.82857ZM27.7 32.6429H9.3V4.35714H18.5V11.4286C18.5 12.725 19.535 13.7857 20.8 13.7857H27.7V32.6429Z" fill="currentColor"/>
<path d="M11.25 24.75H24.75V27H11.25V24.75ZM11.25 18H24.75V20.25H11.25V18Z" fill="currentColor"/>
</svg>
